<svg width="524" height="160" viewBox="0 0 524 160" fill="none" xmlns="http://www.w3.org/2000/svg">
<g clip-path="url(#clip0_1_387)">
<path d="M0 0.981384V98.2891L33.3686 98.31V61.8092L84.7788 98.2891L85.1338 63.5006L0 0.981384Z" fill="#F2F2F2"/>
<path d="M237.36 63.5423V98.2265L274.445 98.2056V36.7932L237.36 63.5423Z" fill="#F2F2F2"/>
<path d="M189.145 63.5214L103.844 0.981384V36.7931L189.145 98.31V63.5214Z" fill="#F2F2F2"/>
<path d="M189.145 63.5214L274.445 0.981384V36.7931L189.145 98.31V63.5214Z" fill="#00B451"/>
<path d="M344.565 75.8625H336.777V27.1877H344.378C362.377 27.1877 372.296 34.2039 372.296 51.5146C372.296 68.8254 362.356 75.8416 344.565 75.8416M384.846 13.7192C374.008 5.53362 357.763 0.960571 338.593 0.960571H303.074V98.3101H338.28C356.718 98.3101 372.192 94.8229 384.679 85.3635C396.017 76.7604 401.781 64.2941 401.781 50.1365C401.781 35.9788 396.185 22.4059 384.846 13.7192Z" fill="#F2F2F2"/>
<path d="M503.077 66.0064C497.898 71.8741 489.984 75.6119 481.11 75.6119C465.511 75.6119 452.878 64.0644 452.878 49.8024C452.878 35.5403 465.511 23.9928 481.11 23.9928C489.775 23.9928 497.522 27.5636 502.701 33.2016L521.181 14.7632C511.617 6.97443 497.397 0.250568 479.523 0.250568L479.585 0C463.506 0 449.683 4.86539 438.156 14.617C426.671 24.4105 420.929 36.125 420.929 49.7606C420.929 63.3962 426.671 75.1316 438.156 84.8415C449.599 94.4261 463.402 99.2497 479.585 99.2915C497.648 99.2915 511.743 92.7973 521.244 84.8415L503.077 65.9855V66.0064Z" fill="#F2F2F2"/>
<path d="M341.767 127.669H360.498V133.266H347.844V138.423H359.809V144.02H347.844V149.616H361.208V155.233H341.767V127.669Z" fill="#F2F2F2"/>
<path d="M370.667 127.669H378.915L390.63 146.818H390.713V127.669H396.79V155.233H388.834L376.806 135.604H376.723V155.233H370.667V127.669Z" fill="#F2F2F2"/>
<path d="M407.21 127.669H425.941V133.266H413.286V138.423H425.231V144.02H413.286V149.616H426.63V155.233H407.21V127.669Z" fill="#F2F2F2"/>
<path d="M442.165 139.071H445.736C446.279 139.071 446.864 139.071 447.469 139.008C448.075 138.966 448.639 138.862 449.119 138.653C449.599 138.465 450.017 138.152 450.351 137.734C450.685 137.317 450.831 136.732 450.831 135.98C450.831 135.27 450.685 134.727 450.393 134.31C450.1 133.892 449.745 133.579 449.307 133.349C448.868 133.14 448.367 132.973 447.783 132.911C447.219 132.827 446.655 132.785 446.112 132.785H442.145V139.05L442.165 139.071ZM436.089 127.669H446.759C448.158 127.669 449.495 127.816 450.748 128.087C452.001 128.359 453.107 128.818 454.047 129.444C454.987 130.071 455.738 130.948 456.302 132.013C456.866 133.099 457.137 134.435 457.137 136.043C457.137 137.985 456.636 139.635 455.613 141.013C454.611 142.37 453.128 143.247 451.186 143.602L458.202 155.233H450.915L445.152 144.208H442.145V155.233H436.068V127.669H436.089Z" fill="#F2F2F2"/>
<path d="M490.882 153.291C489.086 154.231 487.228 154.899 485.286 155.317C483.344 155.734 481.36 155.943 479.335 155.943C477.184 155.943 475.2 155.609 473.383 154.941C471.567 154.272 470.001 153.291 468.664 152.038C467.349 150.785 466.305 149.261 465.574 147.465C464.843 145.669 464.467 143.686 464.467 141.472C464.467 139.259 464.843 137.275 465.574 135.479C466.305 133.683 467.349 132.159 468.664 130.906C470.001 129.653 471.567 128.672 473.383 128.004C475.2 127.335 477.184 126.98 479.335 126.98C481.485 126.98 483.573 127.252 485.432 127.774C487.29 128.296 488.919 129.215 490.318 130.509L486.037 135.187C485.202 134.331 484.263 133.683 483.239 133.245C482.195 132.806 480.901 132.577 479.355 132.577C478.061 132.577 476.891 132.785 475.826 133.245C474.782 133.683 473.864 134.31 473.112 135.103C472.36 135.897 471.775 136.836 471.379 137.922C470.982 139.008 470.773 140.198 470.773 141.472C470.773 142.746 470.982 143.957 471.379 145.043C471.775 146.129 472.36 147.047 473.112 147.841C473.864 148.634 474.761 149.261 475.826 149.699C476.871 150.138 478.04 150.368 479.355 150.368C480.671 150.368 481.819 150.221 482.78 149.929C483.741 149.637 484.513 149.324 485.077 149.01V144.542H480.128V138.945H490.903V153.354L490.882 153.291Z" fill="#F2F2F2"/>
<path d="M507.566 143.477L497.209 127.669H504.768L510.615 137.985L516.796 127.669H524L513.643 143.477V155.233H507.566V143.477Z" fill="#F2F2F2"/>
</g>
<defs>
<clipPath id="clip0_1_387">
<rect width="524" height="160" fill="white"/>
</clipPath>
</defs>
</svg>
